HIERARCHY
ROOT base
{
	OFFSET 0.0 0.0 0.0
	CHANNELS 6 Xposition Yposition Zposition Zrotation Yrotation Xrotation
	JOINT root
	{
		OFFSET 0 0 0
		CHANNELS 6 Xposition Yposition Zposition Zrotation Yrotation Xrotation
		JOINT chest
		{
			OFFSET 0 4.72302 0
			CHANNELS 3 Zrotation Yrotation Xrotation
			JOINT neck
			{
				OFFSET 0 4.47788 0
				CHANNELS 3 Zrotation Yrotation Xrotation
				End Site
				{
					OFFSET 0.0 0.0 0.0
				}
			}
			JOINT right_shoulder
			{
				OFFSET -0.481 4.87 3.6622
				CHANNELS 3 Zrotation Yrotation Xrotation
				JOINT right_elbow
				{
					OFFSET 0 -5.49576 0
					CHANNELS 3 Zrotation Yrotation Xrotation
					JOINT right_wrist
					{
						OFFSET 0 -5.17894 0
						CHANNELS 3 Zrotation Yrotation Xrotation
						End Site
						{
							OFFSET 0.0 0.0 0.0
						}
					}
				}
			}
			JOINT left_shoulder
			{
				OFFSET -0.481 4.87 -3.6622
				CHANNELS 3 Zrotation Yrotation Xrotation
				JOINT left_elbow
				{
					OFFSET 0 -5.49576 0
					CHANNELS 3 Zrotation Yrotation Xrotation
					JOINT left_wrist
					{
						OFFSET 0 -5.17894 0
						CHANNELS 3 Zrotation Yrotation Xrotation
						End Site
						{
							OFFSET 0.0 0.0 0.0
						}
					}
				}
			}
		}
		JOINT right_hip
		{
			OFFSET 0 0 1.69774
			CHANNELS 3 Zrotation Yrotation Xrotation
			JOINT right_knee
			{
				OFFSET 0 -8.43092 0
				CHANNELS 3 Zrotation Yrotation Xrotation
				JOINT right_ankle
				{
					OFFSET 0 -8.1974 0
					CHANNELS 3 Zrotation Yrotation Xrotation
					End Site
					{
						OFFSET 0.0 0.0 0.0
					}
				}
			}
		}
		JOINT left_hip
		{
			OFFSET 0 0 -1.69774
			CHANNELS 3 Zrotation Yrotation Xrotation
			JOINT left_knee
			{
				OFFSET 0 -8.43092 0
				CHANNELS 3 Zrotation Yrotation Xrotation
				JOINT left_ankle
				{
					OFFSET 0 -8.1974 0
					CHANNELS 3 Zrotation Yrotation Xrotation
					End Site
					{
						OFFSET 0.0 0.0 0.0
					}
				}
			}
		}
	}
	JOINT red_arrow
	{
		OFFSET 0 0 0
		CHANNELS 3 Zrotation Yrotation Xrotation
		End Site
		{
			OFFSET 0.0 0.0 0.0
		}
	}
	JOINT blue_arrow
	{
		OFFSET 0 0 0
		CHANNELS 3 Zrotation Yrotation Xrotation
		End Site
		{
			OFFSET 0.0 0.0 0.0
		}
	}
}
MOTION
Frames: 12
Frame Time: 0.0333333333333333
0 18.08466 0 0 0 0 0 0 0 0 -90 0 0 0 0 0 0 0 0 0 -90 0 0 0 0 0 0 0 0 90 0 0 0 0 0 0 0 0 0 0 0 0 0 0 0 0 0 0 0 0 0 0 0 0 0 0 0 0 0 0
1.70895026326179 0 -0.0933264806866646 0 -8.83030068603007 0 0 15.9890094637871 0 -25.8033762226188 -3.57812401664646E-15 -10.220490284772 -1.87007506537378 0.31422213334171 7.08944653466528 -1.9573065603772 -0.489252657023267 0.439966010856017 2.1064281656057 23.8783046808516 -31.0765559205774 76.1802417001704 0 0 0 0 0 -22.9893245959984 -22.5063325633036 34.5670655582377 64.3759740972851 0 0 0 0 0 52.682095466526 -2.35537448411 10.2883756573775 -46.1685919777149 0 0 19.5264762402313 5.66017944654974 -1.06918177757992 31.098480543293 5.32594124494805 13.0520677866358 -93.26799530533 0 0 -2.3234320561525 3.10177088394987 -13.2480704605771 0 0 0 0 0 0
3.47910067439079 0 -0.0959101945161819 0 -9.12556775261113 0 0 16.3427972555161 0 -27.4444926648993 -4.98208125305702 -11.4112881167643 -1.2642187224534 3.12283932388971 4.19596536508162 -2.83541416231308 -1.13093752326824 0.523194090126417 22.492811026787 34.6448795165657 -32.5895352685683 76.0312069724807 0 0 0 0 0 -46.369954771283 -26.1125396491957 42.8495751602235 52.703915051069 0 0 0 0 0 44.1105918780084 -2.9627645092174 12.5777129735187 -38.0074584856551 0 0 21.5982045230539 11.3220350664173 -0.502687614224389 51.6081877445127 -0.809017046537056 19.2203208980657 -99.1663895782021 0 0 4.90458990429089 5.34056405680258 -12.8085008484716 0 0 0 0 0 0
5.79450373053551 0 -0.246514640748501 0 -9.17074955918013 0 0 16.9374649882317 0 -24.8358420107713 -0.779070381797007 -10.3331286149862 -6.77250065092767 1.55185251780839 -0.50200259444957 -1.2988053044064 -2.38130071773236 -0.425261626144296 35.0389389043841 40.5714946804948 -34.5462355897475 86.1921583818177 0 0 0 0 0 -62.5293443596252 -21.2844063327978 49.4505473554443 52.9693908437291 0 0 0 0 0 23.4895205746714 -0.269414226818958 8.90489395227163 -17.9239787878861 0 0 18.1010404497735 9.91063603027205 0.540848248329268 61.4308851316138 -6.66933013688571 14.8128947440345 -96.6627905681231 0 0 11.4303802030267 8.36370266206536 -18.5874270220734 0 0 0 0 0 0
8.0319257080555 0 -0.56651364415884 0 -8.94074622613153 0 0 17.592829990387 0 -25.3034987151562 3.95218275740752 -9.0702035218865 -9.84067514438741 0.0547558724958823 -2.83499578129428 2.02139155353832 -3.02989172408971 -0.966177404704152 37.8615006730141 42.3239641229316 -39.5809859253554 99.7623918851774 0 0 0 0 0 -69.630479495264 -12.7296005997064 49.8924374172743 61.2115747755748 0 0 0 0 0 10.7781036226643 1.27386260987252 5.25066128164722 -4.56493516055004 0 0 -1.8282635313893 5.34953511843603 -0.883755405649088 67.0224250435222 -7.91356563111072 8.95951595849541 -80.7439487073303 0 0 15.4358763476954 9.30729190511657 -21.9405037701771 0 0 0 0 0 0
10.085356426239 0 -0.985509467124939 0 -8.55277396095222 0 0 18.1707947611809 0 -27.1677776379731 6.56573720245513 -8.18266875590933 -12.6018359225126 -0.537062533573337 -3.66760560007562 0.674530642379106 -1.83406659878316 -0.836170490841933 38.7276390832717 44.9445224974737 -46.0920242622718 104.735473110431 0 0 0 0 0 -70.7050516678474 -6.34858676783914 46.1396172901724 65.2681129161046 0 0 0 0 0 4.29574725407663 2.26209910508118 2.02515399907426 0.0230988526694435 0 0 -27.4196645172219 3.70518483273529 0.571626339743208 69.9747783326651 -7.14966863573859 4.73711595535255 -58.8678226826416 0 0 18.7810976485693 10.3206763098689 -22.51724513565 0 0 0 0 0 0
12.2523412823677 0 -1.43469203934073 0 -8.07384765488815 0 0 18.4336970090866 0 -27.108592377826 8.11407236211 -7.00446918137887 -15.6071043011642 -0.346253420132909 -4.01162866540696 -4.28484521484592 -0.871470663193705 -1.68651532518812 38.8985651391389 46.0809373988397 -50.4962757010234 105.843193190024 0 0 0 0 0 -69.3837108455285 -0.961020847825171 41.2738073052686 68.3094322289712 0 0 0 0 0 -2.36798497221443 2.39672359307064 -1.00214921237098 -3.15046872401116 0 0 -43.2135075698174 3.26898818077969 2.67444344420607 68.972971276239 -7.18403046965413 2.00963495860401 -36.6614911625287 0 0 21.792321764147 11.4702882082342 -23.0727583770693 0 0 0 0 0 0
14.5795676708221 0 -1.88306329548359 0 -7.58046893828894 0 0 18.3910019755363 0 -25.1075783684105 8.50205616437467 -5.55876732340948 -17.9949445104326 0.318685699198948 -4.18112209503289 -9.87630006737762 -1.39577166204249 -4.44703619024248 40.1270671700948 44.3485990560368 -49.9306838772538 104.257148132666 0 0 0 0 0 -66.2906739874362 3.91011984955859 36.9679226058156 70.5815219771326 0 0 0 0 0 -8.33538693252764 1.98071939404118 -3.4127304064922 -13.770389635666 0 0 -48.3327377518516 3.19562965716856 3.57659085830923 64.7723747618339 -7.30319856816461 0.872741084780998 -19.5449090364298 0 0 22.9438035578567 11.3558518315852 -21.1523136337713 0 0 0 0 0 0
16.9806308329105 0 -2.28282750844955 0 -7.11005436637629 0 0 18.119740486145 0 -22.4387370463809 8.2709100356655 -4.41130881988905 -19.294904055338 1.35594811791529 -4.30859143333798 -13.8566736388379 -2.35256779727688 -7.51735283671752 41.3629510616112 39.1687395286743 -44.6687662547374 100.502859523288 0 0 0 0 0 -61.5774495528893 8.30770506650333 34.5470061093083 71.6425303929916 0 0 0 0 0 -12.0291133524674 1.46262839415405 -4.77205172378669 -29.7967446504102 0 0 -45.4627284348572 2.65382342189146 3.72525336340504 60.2058920799973 -7.74649516664913 0.432848155891698 -11.5756961760845 0 0 23.5313871661476 10.7551095756394 -17.9969085459798 0 0 0 0 0 0
19.3719275534153 0 -2.60654903389513 0 -6.67789377192385 0 0 17.730608355999 0 -20.0044686378841 7.72181024251874 -4.06779895132197 -20.26451872711 2.55750316821341 -4.51383838376438 -15.7931508103352 -2.66349805637037 -9.44802058119899 39.9562919193018 30.1465272962255 -36.9760427962942 95.7895303921694 0 0 0 0 0 -54.9280234488216 10.6442602986152 32.5063274684466 71.5245661958363 0 0 0 0 0 -11.92835405886 1.19081313228624 -4.41271986538651 -49.1955405725678 0 0 -39.6146153850947 1.88668520141338 3.30046591432294 55.3273057938738 -7.89184644873403 0.362141790142337 -11.295576457844 0 0 22.9650532851913 10.1156830241169 -14.1895202969972 0 0 0 0 0 0
21.6766270041466 0 -2.8916656203568 0 -6.27329370511312 0 0 17.2680488228798 0 -18.9702134724767 7.27447939181695 -4.54628569101569 -20.8654269017031 3.57397235216908 -4.70159613502452 -15.3283427678924 -1.63614417000203 -9.27907617539947 32.7938042710788 19.7046148460372 -28.6993153303486 89.2965544916694 0 0 0 0 0 -46.4335701841138 9.75836509700186 28.4621699037186 71.7553377973235 0 0 0 0 0 -6.93230417871774 0.397243148120869 -2.60550311284158 -69.2673935808222 0 0 -31.4099241008534 1.50948442223968 2.45819320589574 51.7979726665449 -8.42589285939328 -0.159627076210308 -18.4310827677191 0 0 20.1098259209647 8.88687674401744 -10.3753185897756 0 0 0 0 0 0
23.904111802578 0 -3.23795518875122 0 -5.85639079340697 0 0 16.7081447124481 0 -19.1354528103914 7.48859174761054 -4.84194127956633 -21.2724848534227 3.5250377785305 -4.82916880591577 -13.0085017527646 -0.653667354735552 -7.52061155675967 19.0217274717673 13.515580448408 -22.9610877135364 80.8831889437502 0 0 0 0 0 -34.3662542312973 5.0946420809645 21.5037625861477 72.9142501447454 0 0 0 0 0 1.85152950074095 -2.34302628653019 -1.80318070290985 -87.0223883660003 0 0 -20.86593693966 0.335971947765982 2.3403785281344 49.4194989908053 -7.36288084451547 -2.33231318478895 -28.7528048772871 0 0 13.4265526726505 4.49669205759944 2.12161588280048 0 0 0 0 0 0
